<mxfile host="app.diagrams.net" agent="Mozilla/5.0 (Windows NT 10.0; Win64; x64) AppleWebKit/537.36 (KHTML, like Gecko) Chrome/140.0.0.0 Safari/537.36" version="28.2.5">
  <diagram name="Page-1" id="23SYJ83uf7hAcFZXoBXf">
    <mxGraphModel dx="802" dy="436" grid="1" gridSize="10" guides="1" tooltips="1" connect="1" arrows="1" fold="1" page="1" pageScale="1" pageWidth="827" pageHeight="1169" math="0" shadow="0">
      <root>
        <mxCell id="0" />
        <mxCell id="1" parent="0" />
        <mxCell id="rgmxvm780CfT77RHNqv_-15" value="" style="rounded=0;whiteSpace=wrap;html=1;" vertex="1" parent="1">
          <mxGeometry x="110" y="290" width="550" height="300" as="geometry" />
        </mxCell>
        <mxCell id="rgmxvm780CfT77RHNqv_-2" value="&lt;b&gt;gcd&lt;/b&gt;" style="whiteSpace=wrap;html=1;aspect=fixed;" vertex="1" parent="1">
          <mxGeometry x="450" y="320" width="80" height="80" as="geometry" />
        </mxCell>
        <mxCell id="rgmxvm780CfT77RHNqv_-4" value="gcd_top" style="text;html=1;align=center;verticalAlign=middle;whiteSpace=wrap;rounded=0;fontStyle=1" vertex="1" parent="1">
          <mxGeometry x="354" y="290" width="60" height="30" as="geometry" />
        </mxCell>
        <mxCell id="rgmxvm780CfT77RHNqv_-22" style="edgeStyle=orthogonalEdgeStyle;rounded=0;orthogonalLoop=1;jettySize=auto;html=1;entryX=0.01;entryY=0.625;entryDx=0;entryDy=0;entryPerimeter=0;" edge="1" parent="1" source="rgmxvm780CfT77RHNqv_-5" target="rgmxvm780CfT77RHNqv_-2">
          <mxGeometry relative="1" as="geometry" />
        </mxCell>
        <mxCell id="rgmxvm780CfT77RHNqv_-23" value="db_level" style="edgeLabel;html=1;align=center;verticalAlign=middle;resizable=0;points=[];" vertex="1" connectable="0" parent="rgmxvm780CfT77RHNqv_-22">
          <mxGeometry x="-0.8053" y="2" relative="1" as="geometry">
            <mxPoint x="12" y="2" as="offset" />
          </mxGeometry>
        </mxCell>
        <mxCell id="rgmxvm780CfT77RHNqv_-5" value="&lt;b&gt;debounce&lt;/b&gt;" style="whiteSpace=wrap;html=1;aspect=fixed;" vertex="1" parent="1">
          <mxGeometry x="290" y="430" width="80" height="80" as="geometry" />
        </mxCell>
        <mxCell id="rgmxvm780CfT77RHNqv_-9" value="" style="endArrow=classic;html=1;rounded=0;exitX=0.023;exitY=0.409;exitDx=0;exitDy=0;exitPerimeter=0;entryX=0.01;entryY=0.125;entryDx=0;entryDy=0;entryPerimeter=0;" edge="1" parent="1" target="rgmxvm780CfT77RHNqv_-2">
          <mxGeometry width="50" height="50" relative="1" as="geometry">
            <mxPoint x="160.1199999999999" y="329.96000000000004" as="sourcePoint" />
            <mxPoint x="250" y="330" as="targetPoint" />
          </mxGeometry>
        </mxCell>
        <mxCell id="rgmxvm780CfT77RHNqv_-11" value="AB[15:0]" style="edgeLabel;html=1;align=center;verticalAlign=middle;resizable=0;points=[];" vertex="1" connectable="0" parent="rgmxvm780CfT77RHNqv_-9">
          <mxGeometry x="-0.4107" y="-2" relative="1" as="geometry">
            <mxPoint x="-46" y="-2" as="offset" />
          </mxGeometry>
        </mxCell>
        <mxCell id="rgmxvm780CfT77RHNqv_-10" value="" style="endArrow=classic;html=1;rounded=0;exitX=0.023;exitY=0.409;exitDx=0;exitDy=0;exitPerimeter=0;entryX=0;entryY=0.5;entryDx=0;entryDy=0;" edge="1" parent="1">
          <mxGeometry width="50" height="50" relative="1" as="geometry">
            <mxPoint x="160" y="348.5" as="sourcePoint" />
            <mxPoint x="450" y="349" as="targetPoint" />
          </mxGeometry>
        </mxCell>
        <mxCell id="rgmxvm780CfT77RHNqv_-12" value="clk" style="edgeLabel;html=1;align=center;verticalAlign=middle;resizable=0;points=[];" vertex="1" connectable="0" parent="rgmxvm780CfT77RHNqv_-10">
          <mxGeometry x="-0.2978" y="3" relative="1" as="geometry">
            <mxPoint x="-82" y="3" as="offset" />
          </mxGeometry>
        </mxCell>
        <mxCell id="rgmxvm780CfT77RHNqv_-14" value="" style="endArrow=classic;html=1;rounded=0;entryX=0;entryY=0.25;entryDx=0;entryDy=0;" edge="1" parent="1" target="rgmxvm780CfT77RHNqv_-5">
          <mxGeometry width="50" height="50" relative="1" as="geometry">
            <mxPoint x="240" y="349" as="sourcePoint" />
            <mxPoint x="290" y="439" as="targetPoint" />
            <Array as="points">
              <mxPoint x="240" y="450" />
            </Array>
          </mxGeometry>
        </mxCell>
        <mxCell id="rgmxvm780CfT77RHNqv_-17" value="" style="endArrow=classic;html=1;rounded=0;entryX=0;entryY=0.5;entryDx=0;entryDy=0;" edge="1" parent="1" target="rgmxvm780CfT77RHNqv_-5">
          <mxGeometry width="50" height="50" relative="1" as="geometry">
            <mxPoint x="161" y="470" as="sourcePoint" />
            <mxPoint x="261" y="473" as="targetPoint" />
          </mxGeometry>
        </mxCell>
        <mxCell id="rgmxvm780CfT77RHNqv_-19" value="reset" style="edgeLabel;html=1;align=center;verticalAlign=middle;resizable=0;points=[];" vertex="1" connectable="0" parent="rgmxvm780CfT77RHNqv_-17">
          <mxGeometry x="-0.768" relative="1" as="geometry">
            <mxPoint x="3" as="offset" />
          </mxGeometry>
        </mxCell>
        <mxCell id="rgmxvm780CfT77RHNqv_-18" value="" style="endArrow=classic;html=1;rounded=0;entryX=0.01;entryY=0.88;entryDx=0;entryDy=0;entryPerimeter=0;" edge="1" parent="1" target="rgmxvm780CfT77RHNqv_-5">
          <mxGeometry width="50" height="50" relative="1" as="geometry">
            <mxPoint x="160" y="500" as="sourcePoint" />
            <mxPoint x="260" y="500" as="targetPoint" />
          </mxGeometry>
        </mxCell>
        <mxCell id="rgmxvm780CfT77RHNqv_-20" value="req" style="edgeLabel;html=1;align=center;verticalAlign=middle;resizable=0;points=[];" vertex="1" connectable="0" parent="rgmxvm780CfT77RHNqv_-18">
          <mxGeometry x="-0.728" y="-1" relative="1" as="geometry">
            <mxPoint y="-2" as="offset" />
          </mxGeometry>
        </mxCell>
        <mxCell id="rgmxvm780CfT77RHNqv_-21" value="" style="endArrow=classic;html=1;rounded=0;entryX=0.02;entryY=0.885;entryDx=0;entryDy=0;entryPerimeter=0;" edge="1" parent="1" target="rgmxvm780CfT77RHNqv_-2">
          <mxGeometry width="50" height="50" relative="1" as="geometry">
            <mxPoint x="210" y="470" as="sourcePoint" />
            <mxPoint x="450" y="367" as="targetPoint" />
            <Array as="points">
              <mxPoint x="210" y="547" />
              <mxPoint x="430" y="547" />
              <mxPoint x="430" y="391" />
            </Array>
          </mxGeometry>
        </mxCell>
        <mxCell id="rgmxvm780CfT77RHNqv_-25" value="" style="endArrow=classic;html=1;rounded=0;exitX=1;exitY=0.25;exitDx=0;exitDy=0;entryX=0.71;entryY=0.432;entryDx=0;entryDy=0;entryPerimeter=0;" edge="1" parent="1">
          <mxGeometry width="50" height="50" relative="1" as="geometry">
            <mxPoint x="530" y="369.5" as="sourcePoint" />
            <mxPoint x="600" y="369.5" as="targetPoint" />
          </mxGeometry>
        </mxCell>
        <mxCell id="rgmxvm780CfT77RHNqv_-27" value="ack" style="edgeLabel;html=1;align=center;verticalAlign=middle;resizable=0;points=[];" vertex="1" connectable="0" parent="rgmxvm780CfT77RHNqv_-25">
          <mxGeometry x="-0.1543" relative="1" as="geometry">
            <mxPoint as="offset" />
          </mxGeometry>
        </mxCell>
        <mxCell id="rgmxvm780CfT77RHNqv_-28" value="" style="endArrow=classic;html=1;rounded=0;exitX=1;exitY=0.25;exitDx=0;exitDy=0;entryX=0.71;entryY=0.432;entryDx=0;entryDy=0;entryPerimeter=0;" edge="1" parent="1">
          <mxGeometry width="50" height="50" relative="1" as="geometry">
            <mxPoint x="530" y="344" as="sourcePoint" />
            <mxPoint x="600" y="344" as="targetPoint" />
          </mxGeometry>
        </mxCell>
        <mxCell id="rgmxvm780CfT77RHNqv_-34" value="C[15:0]" style="edgeLabel;html=1;align=center;verticalAlign=middle;resizable=0;points=[];" vertex="1" connectable="0" parent="rgmxvm780CfT77RHNqv_-28">
          <mxGeometry x="-0.1543" relative="1" as="geometry">
            <mxPoint as="offset" />
          </mxGeometry>
        </mxCell>
      </root>
    </mxGraphModel>
  </diagram>
</mxfile>
